<svg width="47" height="47" viewBox="0 0 47 47" fill="none" xmlns="http://www.w3.org/2000/svg">
<path d="M21.15 10.575C19.3898 10.575 17.7613 11.1273 16.4218 12.0673C16.3348 10.7207 16.027 9.55276 15.4606 8.51876C17.2495 7.5288 19.2657 7.02275 21.31 7.0506C23.3544 7.07845 25.356 7.63925 27.1173 8.67757C28.8785 9.7159 30.3383 11.1958 31.3525 12.9711C32.3666 14.7463 32.9 16.7555 32.9 18.8H38.1898C39.2801 18.8 40.3258 19.233 41.0969 20.0037C41.8681 20.7744 42.3017 21.8199 42.3023 22.9102V35.8352C42.3026 36.3756 42.1964 36.9108 41.9897 37.4102C41.783 37.9096 41.4799 38.3633 41.0978 38.7455C40.7156 39.1276 40.2619 39.4307 39.7625 39.6374C39.2631 39.8441 38.7279 39.9503 38.1874 39.95H25.2625C24.1717 39.95 23.1257 39.5167 22.3545 38.7455C21.5832 37.9742 21.15 36.9282 21.15 35.8375V30.55C19.5153 30.5521 17.8982 30.2119 16.403 29.5513C16.4335 28.7523 16.45 27.9133 16.45 27.025V26.8793C16.45 26.4869 16.45 26.0357 16.4429 25.5469C17.823 26.511 19.4664 27.0271 21.15 27.025V22.9125C21.15 20.6424 22.9924 18.8 25.2625 18.8H29.375C29.375 16.6186 28.5084 14.5265 26.9659 12.9841C25.4234 11.4416 23.3314 10.575 21.15 10.575ZM32.3618 22.325C31.7922 24.1295 30.7963 25.7703 29.4582 27.1083C28.1202 28.4463 26.4795 29.4423 24.675 30.0119V35.8375C24.675 36.1618 24.9382 36.425 25.2625 36.425H38.1874C38.3433 36.425 38.4927 36.3631 38.6029 36.2529C38.7131 36.1428 38.7749 35.9933 38.7749 35.8375V22.9125C38.7749 22.7567 38.7131 22.6073 38.6029 22.4971C38.4927 22.3869 38.3433 22.325 38.1874 22.325H32.3618ZM28.583 22.325H25.2625C25.1066 22.325 24.9572 22.3869 24.847 22.4971C24.7368 22.6073 24.675 22.7567 24.675 22.9125V26.2331C26.3877 25.4178 27.7677 24.0378 28.583 22.325V22.325ZM10.7653 4.99376C10.9604 5.16437 11.0935 5.39469 11.1441 5.64885C11.1947 5.90301 11.1598 6.16677 11.045 6.39906C11.0251 6.46781 11.0148 6.53899 11.0144 6.61056C11.0144 6.75861 11.052 7.04061 11.4069 7.39311C11.5784 7.56466 11.71 7.68686 11.8534 7.82081C11.9709 7.92891 12.0954 8.04171 12.2529 8.19681C12.5584 8.48821 12.8803 8.83131 13.1694 9.26136C13.7686 10.1614 14.1 11.2871 14.1 12.925C14.1 14.9296 13.3574 16.638 12.1988 17.6861L12.3492 17.86C13.0072 18.6684 13.3903 19.7165 13.63 20.7505C14.1 22.795 14.1 25.2531 14.1 26.9663V27.025C14.1 33.5745 13.2093 37.2898 12.2294 39.4142C11.7359 40.4835 11.2118 41.165 10.7583 41.5927C10.5739 41.7696 10.3705 41.9256 10.152 42.058C10.0519 42.1182 9.94739 42.1709 9.8394 42.2154C9.8394 42.2154 9.57385 42.3 9.39995 42.3C9.22605 42.3 8.9605 42.2154 8.9605 42.2154C8.85134 42.1735 8.74664 42.1207 8.64795 42.058C8.42937 41.9256 8.22604 41.7696 8.04165 41.5927C7.5881 41.1626 7.06405 40.4835 6.57055 39.4142C5.5906 37.2898 4.69995 33.5745 4.69995 27.025V26.9663C4.69995 25.2508 4.69995 22.795 5.16995 20.7505C5.40965 19.7165 5.7927 18.6684 6.4507 17.86C6.4977 17.8013 6.5494 17.7425 6.6011 17.6861C5.44255 16.638 4.69995 14.9296 4.69995 12.925C4.69995 12.1589 4.9044 11.2448 5.1864 10.4011C5.4684 9.55511 5.8632 8.68091 6.3191 7.97591C6.86195 7.05941 7.6257 6.29096 8.2179 5.77396C8.54257 5.48843 8.8814 5.2194 9.2331 4.96791L9.3365 4.89741C9.55199 4.75377 9.80889 4.68534 10.0673 4.70277C10.3257 4.72019 10.5711 4.82249 10.7653 4.99376V4.99376Z" fill="white"/>
</svg>
